<svg width="494" height="394" viewBox="0 0 494 394" fill="none" xmlns="http://www.w3.org/2000/svg">
<path d="M420.486 94.8485C421.854 94.8485 423.036 95.1065 424.032 95.6225C425.04 96.1265 425.808 96.8525 426.336 97.8005C426.876 98.7485 427.146 99.8645 427.146 101.149C427.146 102.433 426.876 103.549 426.336 104.497C425.808 105.433 425.04 106.153 424.032 106.657C423.036 107.149 421.854 107.395 420.486 107.395H416.58V94.8485H420.486ZM420.486 106.045C422.106 106.045 423.342 105.619 424.194 104.767C425.046 103.903 425.472 102.697 425.472 101.149C425.472 99.5885 425.04 98.3705 424.176 97.4945C423.324 96.6185 422.094 96.1805 420.486 96.1805H418.218V106.045H420.486ZM428.695 102.427C428.695 101.419 428.899 100.537 429.307 99.7805C429.715 99.0125 430.273 98.4185 430.981 97.9985C431.701 97.5785 432.499 97.3685 433.375 97.3685C434.239 97.3685 434.989 97.5545 435.625 97.9265C436.261 98.2985 436.735 98.7665 437.047 99.3305V97.5305H438.703V107.395H437.047V105.559C436.723 106.135 436.237 106.615 435.589 106.999C434.953 107.371 434.209 107.557 433.357 107.557C432.481 107.557 431.689 107.341 430.981 106.909C430.273 106.477 429.715 105.871 429.307 105.091C428.899 104.311 428.695 103.423 428.695 102.427ZM437.047 102.445C437.047 101.701 436.897 101.053 436.597 100.501C436.297 99.9485 435.889 99.5285 435.373 99.2405C434.869 98.9405 434.311 98.7905 433.699 98.7905C433.087 98.7905 432.529 98.9345 432.025 99.2225C431.521 99.5105 431.119 99.9305 430.819 100.483C430.519 101.035 430.369 101.683 430.369 102.427C430.369 103.183 430.519 103.843 430.819 104.407C431.119 104.959 431.521 105.385 432.025 105.685C432.529 105.973 433.087 106.117 433.699 106.117C434.311 106.117 434.869 105.973 435.373 105.685C435.889 105.385 436.297 104.959 436.597 104.407C436.897 103.843 437.047 103.189 437.047 102.445ZM443.469 98.8805V104.695C443.469 105.175 443.571 105.517 443.775 105.721C443.979 105.913 444.333 106.009 444.837 106.009H446.043V107.395H444.567C443.655 107.395 442.971 107.185 442.515 106.765C442.059 106.345 441.831 105.655 441.831 104.695V98.8805H440.553V97.5305H441.831V95.0465H443.469V97.5305H446.043V98.8805H443.469ZM447.416 102.427C447.416 101.419 447.62 100.537 448.028 99.7805C448.436 99.0125 448.994 98.4185 449.702 97.9985C450.422 97.5785 451.22 97.3685 452.096 97.3685C452.96 97.3685 453.71 97.5545 454.346 97.9265C454.982 98.2985 455.456 98.7665 455.768 99.3305V97.5305H457.424V107.395H455.768V105.559C455.444 106.135 454.958 106.615 454.31 106.999C453.674 107.371 452.93 107.557 452.078 107.557C451.202 107.557 450.41 107.341 449.702 106.909C448.994 106.477 448.436 105.871 448.028 105.091C447.62 104.311 447.416 103.423 447.416 102.427ZM455.768 102.445C455.768 101.701 455.618 101.053 455.318 100.501C455.018 99.9485 454.61 99.5285 454.094 99.2405C453.59 98.9405 453.032 98.7905 452.42 98.7905C451.808 98.7905 451.25 98.9345 450.746 99.2225C450.242 99.5105 449.84 99.9305 449.54 100.483C449.24 101.035 449.09 101.683 449.09 102.427C449.09 103.183 449.24 103.843 449.54 104.407C449.84 104.959 450.242 105.385 450.746 105.685C451.25 105.973 451.808 106.117 452.42 106.117C453.032 106.117 453.59 105.973 454.094 105.685C454.61 105.385 455.018 104.959 455.318 104.407C455.618 103.843 455.768 103.189 455.768 102.445ZM386.643 132.883L389.703 124.531H391.449L387.579 134.395H385.671L381.801 124.531H383.565L386.643 132.883ZM393.907 122.929C393.595 122.929 393.331 122.821 393.115 122.605C392.899 122.389 392.791 122.125 392.791 121.813C392.791 121.501 392.899 121.237 393.115 121.021C393.331 120.805 393.595 120.697 393.907 120.697C394.207 120.697 394.459 120.805 394.663 121.021C394.879 121.237 394.987 121.501 394.987 121.813C394.987 122.125 394.879 122.389 394.663 122.605C394.459 122.821 394.207 122.929 393.907 122.929ZM394.699 124.531V134.395H393.061V124.531H394.699ZM400.982 134.557C400.226 134.557 399.548 134.431 398.948 134.179C398.348 133.915 397.874 133.555 397.526 133.099C397.178 132.631 396.986 132.097 396.95 131.497H398.642C398.69 131.989 398.918 132.391 399.326 132.703C399.746 133.015 400.292 133.171 400.964 133.171C401.588 133.171 402.08 133.033 402.44 132.757C402.8 132.481 402.98 132.133 402.98 131.713C402.98 131.281 402.788 130.963 402.404 130.759C402.02 130.543 401.426 130.333 400.622 130.129C399.89 129.937 399.29 129.745 398.822 129.553C398.366 129.349 397.97 129.055 397.634 128.671C397.31 128.275 397.148 127.759 397.148 127.123C397.148 126.619 397.298 126.157 397.598 125.737C397.898 125.317 398.324 124.987 398.876 124.747C399.428 124.495 400.058 124.369 400.766 124.369C401.858 124.369 402.74 124.645 403.412 125.197C404.084 125.749 404.444 126.505 404.492 127.465H402.854C402.818 126.949 402.608 126.535 402.224 126.223C401.852 125.911 401.348 125.755 400.712 125.755C400.124 125.755 399.656 125.881 399.308 126.133C398.96 126.385 398.786 126.715 398.786 127.123C398.786 127.447 398.888 127.717 399.092 127.933C399.308 128.137 399.572 128.305 399.884 128.437C400.208 128.557 400.652 128.695 401.216 128.851C401.924 129.043 402.5 129.235 402.944 129.427C403.388 129.607 403.766 129.883 404.078 130.255C404.402 130.627 404.57 131.113 404.582 131.713C404.582 132.253 404.432 132.739 404.132 133.171C403.832 133.603 403.406 133.945 402.854 134.197C402.314 134.437 401.69 134.557 400.982 134.557ZM415.643 124.531V134.395H414.005V132.937C413.693 133.441 413.255 133.837 412.691 134.125C412.139 134.401 411.527 134.539 410.855 134.539C410.087 134.539 409.397 134.383 408.785 134.071C408.173 133.747 407.687 133.267 407.327 132.631C406.979 131.995 406.805 131.221 406.805 130.309V124.531H408.425V130.093C408.425 131.065 408.671 131.815 409.163 132.343C409.655 132.859 410.327 133.117 411.179 133.117C412.055 133.117 412.745 132.847 413.249 132.307C413.753 131.767 414.005 130.981 414.005 129.949V124.531H415.643ZM417.796 129.427C417.796 128.419 418 127.537 418.408 126.781C418.816 126.013 419.374 125.419 420.082 124.999C420.802 124.579 421.6 124.369 422.476 124.369C423.34 124.369 424.09 124.555 424.726 124.927C425.362 125.299 425.836 125.767 426.148 126.331V124.531H427.804V134.395H426.148V132.559C425.824 133.135 425.338 133.615 424.69 133.999C424.054 134.371 423.31 134.557 422.458 134.557C421.582 134.557 420.79 134.341 420.082 133.909C419.374 133.477 418.816 132.871 418.408 132.091C418 131.311 417.796 130.423 417.796 129.427ZM426.148 129.445C426.148 128.701 425.998 128.053 425.698 127.501C425.398 126.949 424.99 126.529 424.474 126.241C423.97 125.941 423.412 125.791 422.8 125.791C422.188 125.791 421.63 125.935 421.126 126.223C420.622 126.511 420.22 126.931 419.92 127.483C419.62 128.035 419.47 128.683 419.47 129.427C419.47 130.183 419.62 130.843 419.92 131.407C420.22 131.959 420.622 132.385 421.126 132.685C421.63 132.973 422.188 133.117 422.8 133.117C423.412 133.117 423.97 132.973 424.474 132.685C424.99 132.385 425.398 131.959 425.698 131.407C425.998 130.843 426.148 130.189 426.148 129.445ZM432.211 121.075V134.395H430.573V121.075H432.211ZM435.848 122.929C435.536 122.929 435.272 122.821 435.056 122.605C434.84 122.389 434.732 122.125 434.732 121.813C434.732 121.501 434.84 121.237 435.056 121.021C435.272 120.805 435.536 120.697 435.848 120.697C436.148 120.697 436.4 120.805 436.604 121.021C436.82 121.237 436.928 121.501 436.928 121.813C436.928 122.125 436.82 122.389 436.604 122.605C436.4 122.821 436.148 122.929 435.848 122.929ZM436.64 124.531V134.395H435.002V124.531H436.64ZM440.656 133.045H445.498V134.395H438.784V133.045L443.572 125.863H438.82V124.531H445.462V125.863L440.656 133.045ZM447.011 129.427C447.011 128.419 447.215 127.537 447.623 126.781C448.031 126.013 448.589 125.419 449.297 124.999C450.017 124.579 450.815 124.369 451.691 124.369C452.555 124.369 453.305 124.555 453.941 124.927C454.577 125.299 455.051 125.767 455.363 126.331V124.531H457.019V134.395H455.363V132.559C455.039 133.135 454.553 133.615 453.905 133.999C453.269 134.371 452.525 134.557 451.673 134.557C450.797 134.557 450.005 134.341 449.297 133.909C448.589 133.477 448.031 132.871 447.623 132.091C447.215 131.311 447.011 130.423 447.011 129.427ZM455.363 129.445C455.363 128.701 455.213 128.053 454.913 127.501C454.613 126.949 454.205 126.529 453.689 126.241C453.185 125.941 452.627 125.791 452.015 125.791C451.403 125.791 450.845 125.935 450.341 126.223C449.837 126.511 449.435 126.931 449.135 127.483C448.835 128.035 448.685 128.683 448.685 129.427C448.685 130.183 448.835 130.843 449.135 131.407C449.435 131.959 449.837 132.385 450.341 132.685C450.845 132.973 451.403 133.117 452.015 133.117C452.627 133.117 453.185 132.973 453.689 132.685C454.205 132.385 454.613 131.959 454.913 131.407C455.213 130.843 455.363 130.189 455.363 129.445ZM461.785 125.881V131.695C461.785 132.175 461.887 132.517 462.091 132.721C462.295 132.913 462.649 133.009 463.153 133.009H464.359V134.395H462.883C461.971 134.395 461.287 134.185 460.831 133.765C460.375 133.345 460.147 132.655 460.147 131.695V125.881H458.869V124.531H460.147V122.047H461.785V124.531H464.359V125.881H461.785ZM467.19 122.929C466.878 122.929 466.614 122.821 466.398 122.605C466.182 122.389 466.074 122.125 466.074 121.813C466.074 121.501 466.182 121.237 466.398 121.021C466.614 120.805 466.878 120.697 467.19 120.697C467.49 120.697 467.742 120.805 467.946 121.021C468.162 121.237 468.27 121.501 468.27 121.813C468.27 122.125 468.162 122.389 467.946 122.605C467.742 122.821 467.49 122.929 467.19 122.929ZM467.982 124.531V134.395H466.344V124.531H467.982ZM475.076 134.557C474.152 134.557 473.312 134.347 472.556 133.927C471.812 133.507 471.224 132.913 470.792 132.145C470.372 131.365 470.162 130.465 470.162 129.445C470.162 128.437 470.378 127.549 470.81 126.781C471.254 126.001 471.854 125.407 472.61 124.999C473.366 124.579 474.212 124.369 475.148 124.369C476.084 124.369 476.93 124.579 477.686 124.999C478.442 125.407 479.036 125.995 479.468 126.763C479.912 127.531 480.134 128.425 480.134 129.445C480.134 130.465 479.906 131.365 479.45 132.145C479.006 132.913 478.4 133.507 477.632 133.927C476.864 134.347 476.012 134.557 475.076 134.557ZM475.076 133.117C475.664 133.117 476.216 132.979 476.732 132.703C477.248 132.427 477.662 132.013 477.974 131.461C478.298 130.909 478.46 130.237 478.46 129.445C478.46 128.653 478.304 127.981 477.992 127.429C477.68 126.877 477.272 126.469 476.768 126.205C476.264 125.929 475.718 125.791 475.13 125.791C474.53 125.791 473.978 125.929 473.474 126.205C472.982 126.469 472.586 126.877 472.286 127.429C471.986 127.981 471.836 128.653 471.836 129.445C471.836 130.249 471.98 130.927 472.268 131.479C472.568 132.031 472.964 132.445 473.456 132.721C473.948 132.985 474.488 133.117 475.076 133.117ZM487.093 124.351C488.293 124.351 489.265 124.717 490.009 125.449C490.753 126.169 491.125 127.213 491.125 128.581V134.395H489.505V128.815C489.505 127.831 489.259 127.081 488.767 126.565C488.275 126.037 487.603 125.773 486.751 125.773C485.887 125.773 485.197 126.043 484.681 126.583C484.177 127.123 483.925 127.909 483.925 128.941V134.395H482.287V124.531H483.925V125.935C484.249 125.431 484.687 125.041 485.239 124.765C485.803 124.489 486.421 124.351 487.093 124.351Z" fill="black"/>
<path d="M160.986 7.454C162.354 7.454 163.536 7.712 164.532 8.228C165.54 8.732 166.308 9.458 166.836 10.406C167.376 11.354 167.646 12.47 167.646 13.754C167.646 15.038 167.376 16.154 166.836 17.102C166.308 18.038 165.54 18.758 164.532 19.262C163.536 19.754 162.354 20 160.986 20H157.08V7.454H160.986ZM160.986 18.65C162.606 18.65 163.842 18.224 164.694 17.372C165.546 16.508 165.972 15.302 165.972 13.754C165.972 12.194 165.54 10.976 164.676 10.1C163.824 9.224 162.594 8.786 160.986 8.786H158.718V18.65H160.986ZM169.195 15.032C169.195 14.024 169.399 13.142 169.807 12.386C170.215 11.618 170.773 11.024 171.481 10.604C172.201 10.184 172.999 9.974 173.875 9.974C174.739 9.974 175.489 10.16 176.125 10.532C176.761 10.904 177.235 11.372 177.547 11.936V10.136H179.203V20H177.547V18.164C177.223 18.74 176.737 19.22 176.089 19.604C175.453 19.976 174.709 20.162 173.857 20.162C172.981 20.162 172.189 19.946 171.481 19.514C170.773 19.082 170.215 18.476 169.807 17.696C169.399 16.916 169.195 16.028 169.195 15.032ZM177.547 15.05C177.547 14.306 177.397 13.658 177.097 13.106C176.797 12.554 176.389 12.134 175.873 11.846C175.369 11.546 174.811 11.396 174.199 11.396C173.587 11.396 173.029 11.54 172.525 11.828C172.021 12.116 171.619 12.536 171.319 13.088C171.019 13.64 170.869 14.288 170.869 15.032C170.869 15.788 171.019 16.448 171.319 17.012C171.619 17.564 172.021 17.99 172.525 18.29C173.029 18.578 173.587 18.722 174.199 18.722C174.811 18.722 175.369 18.578 175.873 18.29C176.389 17.99 176.797 17.564 177.097 17.012C177.397 16.448 177.547 15.794 177.547 15.05ZM183.969 11.486V17.3C183.969 17.78 184.071 18.122 184.275 18.326C184.479 18.518 184.833 18.614 185.337 18.614H186.543V20H185.067C184.155 20 183.471 19.79 183.015 19.37C182.559 18.95 182.331 18.26 182.331 17.3V11.486H181.053V10.136H182.331V7.652H183.969V10.136H186.543V11.486H183.969ZM187.916 15.032C187.916 14.024 188.12 13.142 188.528 12.386C188.936 11.618 189.494 11.024 190.202 10.604C190.922 10.184 191.72 9.974 192.596 9.974C193.46 9.974 194.21 10.16 194.846 10.532C195.482 10.904 195.956 11.372 196.268 11.936V10.136H197.924V20H196.268V18.164C195.944 18.74 195.458 19.22 194.81 19.604C194.174 19.976 193.43 20.162 192.578 20.162C191.702 20.162 190.91 19.946 190.202 19.514C189.494 19.082 188.936 18.476 188.528 17.696C188.12 16.916 187.916 16.028 187.916 15.032ZM196.268 15.05C196.268 14.306 196.118 13.658 195.818 13.106C195.518 12.554 195.11 12.134 194.594 11.846C194.09 11.546 193.532 11.396 192.92 11.396C192.308 11.396 191.75 11.54 191.246 11.828C190.742 12.116 190.34 12.536 190.04 13.088C189.74 13.64 189.59 14.288 189.59 15.032C189.59 15.788 189.74 16.448 190.04 17.012C190.34 17.564 190.742 17.99 191.246 18.29C191.75 18.578 192.308 18.722 192.92 18.722C193.532 18.722 194.09 18.578 194.594 18.29C195.11 17.99 195.518 17.564 195.818 17.012C196.118 16.448 196.268 15.794 196.268 15.05ZM134.417 42.05C134.417 41.03 134.621 40.142 135.029 39.386C135.437 38.618 136.001 38.024 136.721 37.604C137.453 37.184 138.287 36.974 139.223 36.974C140.435 36.974 141.431 37.268 142.211 37.856C143.003 38.444 143.525 39.26 143.777 40.304H142.013C141.845 39.704 141.515 39.23 141.023 38.882C140.543 38.534 139.943 38.36 139.223 38.36C138.287 38.36 137.531 38.684 136.955 39.332C136.379 39.968 136.091 40.874 136.091 42.05C136.091 43.238 136.379 44.156 136.955 44.804C137.531 45.452 138.287 45.776 139.223 45.776C139.943 45.776 140.543 45.608 141.023 45.272C141.503 44.936 141.833 44.456 142.013 43.832H143.777C143.513 44.84 142.985 45.65 142.193 46.262C141.401 46.862 140.411 47.162 139.223 47.162C138.287 47.162 137.453 46.952 136.721 46.532C136.001 46.112 135.437 45.518 135.029 44.75C134.621 43.982 134.417 43.082 134.417 42.05ZM147.6 33.68V47H145.962V33.68H147.6ZM159.392 41.69C159.392 42.002 159.374 42.332 159.338 42.68H151.454C151.514 43.652 151.844 44.414 152.444 44.966C153.056 45.506 153.794 45.776 154.658 45.776C155.366 45.776 155.954 45.614 156.422 45.29C156.902 44.954 157.238 44.51 157.43 43.958H159.194C158.93 44.906 158.402 45.68 157.61 46.28C156.818 46.868 155.834 47.162 154.658 47.162C153.722 47.162 152.882 46.952 152.138 46.532C151.406 46.112 150.83 45.518 150.41 44.75C149.99 43.97 149.78 43.07 149.78 42.05C149.78 41.03 149.984 40.136 150.392 39.368C150.8 38.6 151.37 38.012 152.102 37.604C152.846 37.184 153.698 36.974 154.658 36.974C155.594 36.974 156.422 37.178 157.142 37.586C157.862 37.994 158.414 38.558 158.798 39.278C159.194 39.986 159.392 40.79 159.392 41.69ZM157.7 41.348C157.7 40.724 157.562 40.19 157.286 39.746C157.01 39.29 156.632 38.948 156.152 38.72C155.684 38.48 155.162 38.36 154.586 38.36C153.758 38.36 153.05 38.624 152.462 39.152C151.886 39.68 151.556 40.412 151.472 41.348H157.7ZM160.942 42.032C160.942 41.024 161.146 40.142 161.554 39.386C161.962 38.618 162.52 38.024 163.228 37.604C163.948 37.184 164.746 36.974 165.622 36.974C166.486 36.974 167.236 37.16 167.872 37.532C168.508 37.904 168.982 38.372 169.294 38.936V37.136H170.95V47H169.294V45.164C168.97 45.74 168.484 46.22 167.836 46.604C167.2 46.976 166.456 47.162 165.604 47.162C164.728 47.162 163.936 46.946 163.228 46.514C162.52 46.082 161.962 45.476 161.554 44.696C161.146 43.916 160.942 43.028 160.942 42.032ZM169.294 42.05C169.294 41.306 169.144 40.658 168.844 40.106C168.544 39.554 168.136 39.134 167.62 38.846C167.116 38.546 166.558 38.396 165.946 38.396C165.334 38.396 164.776 38.54 164.272 38.828C163.768 39.116 163.366 39.536 163.066 40.088C162.766 40.64 162.616 41.288 162.616 42.032C162.616 42.788 162.766 43.448 163.066 44.012C163.366 44.564 163.768 44.99 164.272 45.29C164.776 45.578 165.334 45.722 165.946 45.722C166.558 45.722 167.116 45.578 167.62 45.29C168.136 44.99 168.544 44.564 168.844 44.012C169.144 43.448 169.294 42.794 169.294 42.05ZM178.524 36.956C179.724 36.956 180.696 37.322 181.44 38.054C182.184 38.774 182.556 39.818 182.556 41.186V47H180.936V41.42C180.936 40.436 180.69 39.686 180.198 39.17C179.706 38.642 179.034 38.378 178.182 38.378C177.318 38.378 176.628 38.648 176.112 39.188C175.608 39.728 175.356 40.514 175.356 41.546V47H173.718V37.136H175.356V38.54C175.68 38.036 176.118 37.646 176.67 37.37C177.234 37.094 177.852 36.956 178.524 36.956ZM188.724 47.162C187.968 47.162 187.29 47.036 186.69 46.784C186.09 46.52 185.616 46.16 185.268 45.704C184.92 45.236 184.728 44.702 184.692 44.102H186.384C186.432 44.594 186.66 44.996 187.068 45.308C187.488 45.62 188.034 45.776 188.706 45.776C189.33 45.776 189.822 45.638 190.182 45.362C190.542 45.086 190.722 44.738 190.722 44.318C190.722 43.886 190.53 43.568 190.146 43.364C189.762 43.148 189.168 42.938 188.364 42.734C187.632 42.542 187.032 42.35 186.564 42.158C186.108 41.954 185.712 41.66 185.376 41.276C185.052 40.88 184.89 40.364 184.89 39.728C184.89 39.224 185.04 38.762 185.34 38.342C185.64 37.922 186.066 37.592 186.618 37.352C187.17 37.1 187.8 36.974 188.508 36.974C189.6 36.974 190.482 37.25 191.154 37.802C191.826 38.354 192.186 39.11 192.234 40.07H190.596C190.56 39.554 190.35 39.14 189.966 38.828C189.594 38.516 189.09 38.36 188.454 38.36C187.866 38.36 187.398 38.486 187.05 38.738C186.702 38.99 186.528 39.32 186.528 39.728C186.528 40.052 186.63 40.322 186.834 40.538C187.05 40.742 187.314 40.91 187.626 41.042C187.95 41.162 188.394 41.3 188.958 41.456C189.666 41.648 190.242 41.84 190.686 42.032C191.13 42.212 191.508 42.488 191.82 42.86C192.144 43.232 192.312 43.718 192.324 44.318C192.324 44.858 192.174 45.344 191.874 45.776C191.574 46.208 191.148 46.55 190.596 46.802C190.056 47.042 189.432 47.162 188.724 47.162ZM195.482 35.534C195.17 35.534 194.906 35.426 194.69 35.21C194.474 34.994 194.366 34.73 194.366 34.418C194.366 34.106 194.474 33.842 194.69 33.626C194.906 33.41 195.17 33.302 195.482 33.302C195.782 33.302 196.034 33.41 196.238 33.626C196.454 33.842 196.562 34.106 196.562 34.418C196.562 34.73 196.454 34.994 196.238 35.21C196.034 35.426 195.782 35.534 195.482 35.534ZM196.274 37.136V47H194.636V37.136H196.274ZM203.872 36.956C205.072 36.956 206.044 37.322 206.788 38.054C207.532 38.774 207.904 39.818 207.904 41.186V47H206.284V41.42C206.284 40.436 206.038 39.686 205.546 39.17C205.054 38.642 204.382 38.378 203.53 38.378C202.666 38.378 201.976 38.648 201.46 39.188C200.956 39.728 200.704 40.514 200.704 41.546V47H199.066V37.136H200.704V38.54C201.028 38.036 201.466 37.646 202.018 37.37C202.582 37.094 203.2 36.956 203.872 36.956ZM214.647 36.974C215.499 36.974 216.243 37.16 216.879 37.532C217.527 37.904 218.007 38.372 218.319 38.936V37.136H219.975V47.216C219.975 48.116 219.783 48.914 219.399 49.61C219.015 50.318 218.463 50.87 217.743 51.266C217.035 51.662 216.207 51.86 215.259 51.86C213.963 51.86 212.883 51.554 212.019 50.942C211.155 50.33 210.645 49.496 210.489 48.44H212.109C212.289 49.04 212.661 49.52 213.225 49.88C213.789 50.252 214.467 50.438 215.259 50.438C216.159 50.438 216.891 50.156 217.455 49.592C218.031 49.028 218.319 48.236 218.319 47.216V45.146C217.995 45.722 217.515 46.202 216.879 46.586C216.243 46.97 215.499 47.162 214.647 47.162C213.771 47.162 212.973 46.946 212.253 46.514C211.545 46.082 210.987 45.476 210.579 44.696C210.171 43.916 209.967 43.028 209.967 42.032C209.967 41.024 210.171 40.142 210.579 39.386C210.987 38.618 211.545 38.024 212.253 37.604C212.973 37.184 213.771 36.974 214.647 36.974ZM218.319 42.05C218.319 41.306 218.169 40.658 217.869 40.106C217.569 39.554 217.161 39.134 216.645 38.846C216.141 38.546 215.583 38.396 214.971 38.396C214.359 38.396 213.801 38.54 213.297 38.828C212.793 39.116 212.391 39.536 212.091 40.088C211.791 40.64 211.641 41.288 211.641 42.032C211.641 42.788 211.791 43.448 212.091 44.012C212.391 44.564 212.793 44.99 213.297 45.29C213.801 45.578 214.359 45.722 214.971 45.722C215.583 45.722 216.141 45.578 216.645 45.29C217.161 44.99 217.569 44.564 217.869 44.012C218.169 43.448 218.319 42.794 218.319 42.05Z" fill="black"/>
<path d="M346.292 308.454C347.66 308.454 348.842 308.712 349.838 309.228C350.846 309.732 351.614 310.458 352.142 311.406C352.682 312.354 352.952 313.47 352.952 314.754C352.952 316.038 352.682 317.154 352.142 318.102C351.614 319.038 350.846 319.758 349.838 320.262C348.842 320.754 347.66 321 346.292 321H342.386V308.454H346.292ZM346.292 319.65C347.912 319.65 349.148 319.224 350 318.372C350.852 317.508 351.278 316.302 351.278 314.754C351.278 313.194 350.846 311.976 349.982 311.1C349.13 310.224 347.9 309.786 346.292 309.786H344.024V319.65H346.292ZM354.501 316.032C354.501 315.024 354.705 314.142 355.113 313.386C355.521 312.618 356.079 312.024 356.787 311.604C357.507 311.184 358.305 310.974 359.181 310.974C360.045 310.974 360.795 311.16 361.431 311.532C362.067 311.904 362.541 312.372 362.853 312.936V311.136H364.509V321H362.853V319.164C362.529 319.74 362.043 320.22 361.395 320.604C360.759 320.976 360.015 321.162 359.163 321.162C358.287 321.162 357.495 320.946 356.787 320.514C356.079 320.082 355.521 319.476 355.113 318.696C354.705 317.916 354.501 317.028 354.501 316.032ZM362.853 316.05C362.853 315.306 362.703 314.658 362.403 314.106C362.103 313.554 361.695 313.134 361.179 312.846C360.675 312.546 360.117 312.396 359.505 312.396C358.893 312.396 358.335 312.54 357.831 312.828C357.327 313.116 356.925 313.536 356.625 314.088C356.325 314.64 356.175 315.288 356.175 316.032C356.175 316.788 356.325 317.448 356.625 318.012C356.925 318.564 357.327 318.99 357.831 319.29C358.335 319.578 358.893 319.722 359.505 319.722C360.117 319.722 360.675 319.578 361.179 319.29C361.695 318.99 362.103 318.564 362.403 318.012C362.703 317.448 362.853 316.794 362.853 316.05ZM369.275 312.486V318.3C369.275 318.78 369.377 319.122 369.581 319.326C369.785 319.518 370.139 319.614 370.643 319.614H371.849V321H370.373C369.461 321 368.777 320.79 368.321 320.37C367.865 319.95 367.637 319.26 367.637 318.3V312.486H366.359V311.136H367.637V308.652H369.275V311.136H371.849V312.486H369.275ZM373.221 316.032C373.221 315.024 373.425 314.142 373.833 313.386C374.241 312.618 374.799 312.024 375.507 311.604C376.227 311.184 377.025 310.974 377.901 310.974C378.765 310.974 379.515 311.16 380.151 311.532C380.787 311.904 381.261 312.372 381.573 312.936V311.136H383.229V321H381.573V319.164C381.249 319.74 380.763 320.22 380.115 320.604C379.479 320.976 378.735 321.162 377.883 321.162C377.007 321.162 376.215 320.946 375.507 320.514C374.799 320.082 374.241 319.476 373.833 318.696C373.425 317.916 373.221 317.028 373.221 316.032ZM381.573 316.05C381.573 315.306 381.423 314.658 381.123 314.106C380.823 313.554 380.415 313.134 379.899 312.846C379.395 312.546 378.837 312.396 378.225 312.396C377.613 312.396 377.055 312.54 376.551 312.828C376.047 313.116 375.645 313.536 375.345 314.088C375.045 314.64 374.895 315.288 374.895 316.032C374.895 316.788 375.045 317.448 375.345 318.012C375.645 318.564 376.047 318.99 376.551 319.29C377.055 319.578 377.613 319.722 378.225 319.722C378.837 319.722 379.395 319.578 379.899 319.29C380.415 318.99 380.823 318.564 381.123 318.012C381.423 317.448 381.573 316.794 381.573 316.05ZM392.434 307.68V321H390.796V307.68H392.434ZM399.528 321.162C398.604 321.162 397.764 320.952 397.008 320.532C396.264 320.112 395.676 319.518 395.244 318.75C394.824 317.97 394.614 317.07 394.614 316.05C394.614 315.042 394.83 314.154 395.262 313.386C395.706 312.606 396.306 312.012 397.062 311.604C397.818 311.184 398.664 310.974 399.6 310.974C400.536 310.974 401.382 311.184 402.138 311.604C402.894 312.012 403.488 312.6 403.92 313.368C404.364 314.136 404.586 315.03 404.586 316.05C404.586 317.07 404.358 317.97 403.902 318.75C403.458 319.518 402.852 320.112 402.084 320.532C401.316 320.952 400.464 321.162 399.528 321.162ZM399.528 319.722C400.116 319.722 400.668 319.584 401.184 319.308C401.7 319.032 402.114 318.618 402.426 318.066C402.75 317.514 402.912 316.842 402.912 316.05C402.912 315.258 402.756 314.586 402.444 314.034C402.132 313.482 401.724 313.074 401.22 312.81C400.716 312.534 400.17 312.396 399.582 312.396C398.982 312.396 398.43 312.534 397.926 312.81C397.434 313.074 397.038 313.482 396.738 314.034C396.438 314.586 396.288 315.258 396.288 316.05C396.288 316.854 396.432 317.532 396.72 318.084C397.02 318.636 397.416 319.05 397.908 319.326C398.4 319.59 398.94 319.722 399.528 319.722ZM406.128 316.032C406.128 315.024 406.332 314.142 406.74 313.386C407.148 312.618 407.706 312.024 408.414 311.604C409.134 311.184 409.932 310.974 410.808 310.974C411.672 310.974 412.422 311.16 413.058 311.532C413.694 311.904 414.168 312.372 414.48 312.936V311.136H416.136V321H414.48V319.164C414.156 319.74 413.67 320.22 413.022 320.604C412.386 320.976 411.642 321.162 410.79 321.162C409.914 321.162 409.122 320.946 408.414 320.514C407.706 320.082 407.148 319.476 406.74 318.696C406.332 317.916 406.128 317.028 406.128 316.032ZM414.48 316.05C414.48 315.306 414.33 314.658 414.03 314.106C413.73 313.554 413.322 313.134 412.806 312.846C412.302 312.546 411.744 312.396 411.132 312.396C410.52 312.396 409.962 312.54 409.458 312.828C408.954 313.116 408.552 313.536 408.252 314.088C407.952 314.64 407.802 315.288 407.802 316.032C407.802 316.788 407.952 317.448 408.252 318.012C408.552 318.564 408.954 318.99 409.458 319.29C409.962 319.578 410.52 319.722 411.132 319.722C411.744 319.722 412.302 319.578 412.806 319.29C413.322 318.99 413.73 318.564 414.03 318.012C414.33 317.448 414.48 316.794 414.48 316.05ZM418.292 316.032C418.292 315.024 418.496 314.142 418.904 313.386C419.312 312.618 419.87 312.024 420.578 311.604C421.298 311.184 422.102 310.974 422.99 310.974C423.758 310.974 424.472 311.154 425.132 311.514C425.792 311.862 426.296 312.324 426.644 312.9V307.68H428.3V321H426.644V319.146C426.32 319.734 425.84 320.22 425.204 320.604C424.568 320.976 423.824 321.162 422.972 321.162C422.096 321.162 421.298 320.946 420.578 320.514C419.87 320.082 419.312 319.476 418.904 318.696C418.496 317.916 418.292 317.028 418.292 316.032ZM426.644 316.05C426.644 315.306 426.494 314.658 426.194 314.106C425.894 313.554 425.486 313.134 424.97 312.846C424.466 312.546 423.908 312.396 423.296 312.396C422.684 312.396 422.126 312.54 421.622 312.828C421.118 313.116 420.716 313.536 420.416 314.088C420.116 314.64 419.966 315.288 419.966 316.032C419.966 316.788 420.116 317.448 420.416 318.012C420.716 318.564 421.118 318.99 421.622 319.29C422.126 319.578 422.684 319.722 423.296 319.722C423.908 319.722 424.466 319.578 424.97 319.29C425.486 318.99 425.894 318.564 426.194 318.012C426.494 317.448 426.644 316.794 426.644 316.05ZM431.914 309.534C431.602 309.534 431.338 309.426 431.122 309.21C430.906 308.994 430.798 308.73 430.798 308.418C430.798 308.106 430.906 307.842 431.122 307.626C431.338 307.41 431.602 307.302 431.914 307.302C432.214 307.302 432.466 307.41 432.67 307.626C432.886 307.842 432.994 308.106 432.994 308.418C432.994 308.73 432.886 308.994 432.67 309.21C432.466 309.426 432.214 309.534 431.914 309.534ZM432.706 311.136V321H431.068V311.136H432.706ZM440.303 310.956C441.503 310.956 442.475 311.322 443.219 312.054C443.963 312.774 444.335 313.818 444.335 315.186V321H442.715V315.42C442.715 314.436 442.469 313.686 441.977 313.17C441.485 312.642 440.813 312.378 439.961 312.378C439.097 312.378 438.407 312.648 437.891 313.188C437.387 313.728 437.135 314.514 437.135 315.546V321H435.497V311.136H437.135V312.54C437.459 312.036 437.897 311.646 438.449 311.37C439.013 311.094 439.631 310.956 440.303 310.956ZM451.079 310.974C451.931 310.974 452.675 311.16 453.311 311.532C453.959 311.904 454.439 312.372 454.751 312.936V311.136H456.407V321.216C456.407 322.116 456.215 322.914 455.831 323.61C455.447 324.318 454.895 324.87 454.175 325.266C453.467 325.662 452.639 325.86 451.691 325.86C450.395 325.86 449.315 325.554 448.451 324.942C447.587 324.33 447.077 323.496 446.921 322.44H448.541C448.721 323.04 449.093 323.52 449.657 323.88C450.221 324.252 450.899 324.438 451.691 324.438C452.591 324.438 453.323 324.156 453.887 323.592C454.463 323.028 454.751 322.236 454.751 321.216V319.146C454.427 319.722 453.947 320.202 453.311 320.586C452.675 320.97 451.931 321.162 451.079 321.162C450.203 321.162 449.405 320.946 448.685 320.514C447.977 320.082 447.419 319.476 447.011 318.696C446.603 317.916 446.399 317.028 446.399 316.032C446.399 315.024 446.603 314.142 447.011 313.386C447.419 312.618 447.977 312.024 448.685 311.604C449.405 311.184 450.203 310.974 451.079 310.974ZM454.751 316.05C454.751 315.306 454.601 314.658 454.301 314.106C454.001 313.554 453.593 313.134 453.077 312.846C452.573 312.546 452.015 312.396 451.403 312.396C450.791 312.396 450.233 312.54 449.729 312.828C449.225 313.116 448.823 313.536 448.523 314.088C448.223 314.64 448.073 315.288 448.073 316.032C448.073 316.788 448.223 317.448 448.523 318.012C448.823 318.564 449.225 318.99 449.729 319.29C450.233 319.578 450.791 319.722 451.403 319.722C452.015 319.722 452.573 319.578 453.077 319.29C453.593 318.99 454.001 318.564 454.301 318.012C454.601 317.448 454.751 316.794 454.751 316.05Z" fill="black"/>
<path d="M157.669 353.454C159.037 353.454 160.219 353.712 161.215 354.228C162.223 354.732 162.991 355.458 163.519 356.406C164.059 357.354 164.329 358.47 164.329 359.754C164.329 361.038 164.059 362.154 163.519 363.102C162.991 364.038 162.223 364.758 161.215 365.262C160.219 365.754 159.037 366 157.669 366H153.763V353.454H157.669ZM157.669 364.65C159.289 364.65 160.525 364.224 161.377 363.372C162.229 362.508 162.655 361.302 162.655 359.754C162.655 358.194 162.223 356.976 161.359 356.1C160.507 355.224 159.277 354.786 157.669 354.786H155.401V364.65H157.669ZM175.49 360.69C175.49 361.002 175.472 361.332 175.436 361.68H167.552C167.612 362.652 167.942 363.414 168.542 363.966C169.154 364.506 169.892 364.776 170.756 364.776C171.464 364.776 172.052 364.614 172.52 364.29C173 363.954 173.336 363.51 173.528 362.958H175.292C175.028 363.906 174.5 364.68 173.708 365.28C172.916 365.868 171.932 366.162 170.756 366.162C169.82 366.162 168.98 365.952 168.236 365.532C167.504 365.112 166.928 364.518 166.508 363.75C166.088 362.97 165.878 362.07 165.878 361.05C165.878 360.03 166.082 359.136 166.49 358.368C166.898 357.6 167.468 357.012 168.2 356.604C168.944 356.184 169.796 355.974 170.756 355.974C171.692 355.974 172.52 356.178 173.24 356.586C173.96 356.994 174.512 357.558 174.896 358.278C175.292 358.986 175.49 359.79 175.49 360.69ZM173.798 360.348C173.798 359.724 173.66 359.19 173.384 358.746C173.108 358.29 172.73 357.948 172.25 357.72C171.782 357.48 171.26 357.36 170.684 357.36C169.856 357.36 169.148 357.624 168.56 358.152C167.984 358.68 167.654 359.412 167.57 360.348H173.798ZM179.29 357.954C179.614 357.39 180.094 356.922 180.73 356.55C181.378 356.166 182.128 355.974 182.98 355.974C183.856 355.974 184.648 356.184 185.356 356.604C186.076 357.024 186.64 357.618 187.048 358.386C187.456 359.142 187.66 360.024 187.66 361.032C187.66 362.028 187.456 362.916 187.048 363.696C186.64 364.476 186.076 365.082 185.356 365.514C184.648 365.946 183.856 366.162 182.98 366.162C182.14 366.162 181.396 365.976 180.748 365.604C180.112 365.22 179.626 364.746 179.29 364.182V370.68H177.652V356.136H179.29V357.954ZM185.986 361.032C185.986 360.288 185.836 359.64 185.536 359.088C185.236 358.536 184.828 358.116 184.312 357.828C183.808 357.54 183.25 357.396 182.638 357.396C182.038 357.396 181.48 357.546 180.964 357.846C180.46 358.134 180.052 358.56 179.74 359.124C179.44 359.676 179.29 360.318 179.29 361.05C179.29 361.794 179.44 362.448 179.74 363.012C180.052 363.564 180.46 363.99 180.964 364.29C181.48 364.578 182.038 364.722 182.638 364.722C183.25 364.722 183.808 364.578 184.312 364.29C184.828 363.99 185.236 363.564 185.536 363.012C185.836 362.448 185.986 361.788 185.986 361.032ZM191.454 352.68V366H189.816V352.68H191.454ZM198.547 366.162C197.623 366.162 196.783 365.952 196.027 365.532C195.283 365.112 194.695 364.518 194.263 363.75C193.843 362.97 193.633 362.07 193.633 361.05C193.633 360.042 193.849 359.154 194.281 358.386C194.725 357.606 195.325 357.012 196.081 356.604C196.837 356.184 197.683 355.974 198.619 355.974C199.555 355.974 200.401 356.184 201.157 356.604C201.913 357.012 202.507 357.6 202.939 358.368C203.383 359.136 203.605 360.03 203.605 361.05C203.605 362.07 203.377 362.97 202.921 363.75C202.477 364.518 201.871 365.112 201.103 365.532C200.335 365.952 199.483 366.162 198.547 366.162ZM198.547 364.722C199.135 364.722 199.687 364.584 200.203 364.308C200.719 364.032 201.133 363.618 201.445 363.066C201.769 362.514 201.931 361.842 201.931 361.05C201.931 360.258 201.775 359.586 201.463 359.034C201.151 358.482 200.743 358.074 200.239 357.81C199.735 357.534 199.189 357.396 198.601 357.396C198.001 357.396 197.449 357.534 196.945 357.81C196.453 358.074 196.057 358.482 195.757 359.034C195.457 359.586 195.307 360.258 195.307 361.05C195.307 361.854 195.451 362.532 195.739 363.084C196.039 363.636 196.435 364.05 196.927 364.326C197.419 364.59 197.959 364.722 198.547 364.722ZM214.255 356.136L208.315 370.644H206.623L208.567 365.892L204.589 356.136H206.407L209.503 364.128L212.563 356.136H214.255ZM216.748 354.534C216.436 354.534 216.172 354.426 215.956 354.21C215.74 353.994 215.632 353.73 215.632 353.418C215.632 353.106 215.74 352.842 215.956 352.626C216.172 352.41 216.436 352.302 216.748 352.302C217.048 352.302 217.3 352.41 217.504 352.626C217.72 352.842 217.828 353.106 217.828 353.418C217.828 353.73 217.72 353.994 217.504 354.21C217.3 354.426 217.048 354.534 216.748 354.534ZM217.54 356.136V366H215.902V356.136H217.54ZM225.137 355.956C226.337 355.956 227.309 356.322 228.053 357.054C228.797 357.774 229.169 358.818 229.169 360.186V366H227.549V360.42C227.549 359.436 227.303 358.686 226.811 358.17C226.319 357.642 225.647 357.378 224.795 357.378C223.931 357.378 223.241 357.648 222.725 358.188C222.221 358.728 221.969 359.514 221.969 360.546V366H220.331V356.136H221.969V357.54C222.293 357.036 222.731 356.646 223.283 356.37C223.847 356.094 224.465 355.956 225.137 355.956ZM235.913 355.974C236.765 355.974 237.509 356.16 238.145 356.532C238.793 356.904 239.273 357.372 239.585 357.936V356.136H241.241V366.216C241.241 367.116 241.049 367.914 240.665 368.61C240.281 369.318 239.729 369.87 239.009 370.266C238.301 370.662 237.473 370.86 236.525 370.86C235.229 370.86 234.149 370.554 233.285 369.942C232.421 369.33 231.911 368.496 231.755 367.44H233.375C233.555 368.04 233.927 368.52 234.491 368.88C235.055 369.252 235.733 369.438 236.525 369.438C237.425 369.438 238.157 369.156 238.721 368.592C239.297 368.028 239.585 367.236 239.585 366.216V364.146C239.261 364.722 238.781 365.202 238.145 365.586C237.509 365.97 236.765 366.162 235.913 366.162C235.037 366.162 234.239 365.946 233.519 365.514C232.811 365.082 232.253 364.476 231.845 363.696C231.437 362.916 231.233 362.028 231.233 361.032C231.233 360.024 231.437 359.142 231.845 358.386C232.253 357.618 232.811 357.024 233.519 356.604C234.239 356.184 235.037 355.974 235.913 355.974ZM239.585 361.05C239.585 360.306 239.435 359.658 239.135 359.106C238.835 358.554 238.427 358.134 237.911 357.846C237.407 357.546 236.849 357.396 236.237 357.396C235.625 357.396 235.067 357.54 234.563 357.828C234.059 358.116 233.657 358.536 233.357 359.088C233.057 359.64 232.907 360.288 232.907 361.032C232.907 361.788 233.057 362.448 233.357 363.012C233.657 363.564 234.059 363.99 234.563 364.29C235.067 364.578 235.625 364.722 236.237 364.722C236.849 364.722 237.407 364.578 237.911 364.29C238.427 363.99 238.835 363.564 239.135 363.012C239.435 362.448 239.585 361.794 239.585 361.05ZM177.139 382.956C177.907 382.956 178.591 383.118 179.191 383.442C179.791 383.754 180.265 384.228 180.613 384.864C180.961 385.5 181.135 386.274 181.135 387.186V393H179.515V387.42C179.515 386.436 179.269 385.686 178.777 385.17C178.297 384.642 177.643 384.378 176.815 384.378C175.963 384.378 175.285 384.654 174.781 385.206C174.277 385.746 174.025 386.532 174.025 387.564V393H172.405V387.42C172.405 386.436 172.159 385.686 171.667 385.17C171.187 384.642 170.533 384.378 169.705 384.378C168.853 384.378 168.175 384.654 167.671 385.206C167.167 385.746 166.915 386.532 166.915 387.564V393H165.277V383.136H166.915V384.558C167.239 384.042 167.671 383.646 168.211 383.37C168.763 383.094 169.369 382.956 170.029 382.956C170.857 382.956 171.589 383.142 172.225 383.514C172.861 383.886 173.335 384.432 173.647 385.152C173.923 384.456 174.379 383.916 175.015 383.532C175.651 383.148 176.359 382.956 177.139 382.956ZM188.124 393.162C187.2 393.162 186.36 392.952 185.604 392.532C184.86 392.112 184.272 391.518 183.84 390.75C183.42 389.97 183.21 389.07 183.21 388.05C183.21 387.042 183.426 386.154 183.858 385.386C184.302 384.606 184.902 384.012 185.658 383.604C186.414 383.184 187.26 382.974 188.196 382.974C189.132 382.974 189.978 383.184 190.734 383.604C191.49 384.012 192.084 384.6 192.516 385.368C192.96 386.136 193.182 387.03 193.182 388.05C193.182 389.07 192.954 389.97 192.498 390.75C192.054 391.518 191.448 392.112 190.68 392.532C189.912 392.952 189.06 393.162 188.124 393.162ZM188.124 391.722C188.712 391.722 189.264 391.584 189.78 391.308C190.296 391.032 190.71 390.618 191.022 390.066C191.346 389.514 191.508 388.842 191.508 388.05C191.508 387.258 191.352 386.586 191.04 386.034C190.728 385.482 190.32 385.074 189.816 384.81C189.312 384.534 188.766 384.396 188.178 384.396C187.578 384.396 187.026 384.534 186.522 384.81C186.03 385.074 185.634 385.482 185.334 386.034C185.034 386.586 184.884 387.258 184.884 388.05C184.884 388.854 185.028 389.532 185.316 390.084C185.616 390.636 186.012 391.05 186.504 391.326C186.996 391.59 187.536 391.722 188.124 391.722ZM194.723 388.032C194.723 387.024 194.927 386.142 195.335 385.386C195.743 384.618 196.301 384.024 197.009 383.604C197.729 383.184 198.533 382.974 199.421 382.974C200.189 382.974 200.903 383.154 201.563 383.514C202.223 383.862 202.727 384.324 203.075 384.9V379.68H204.731V393H203.075V391.146C202.751 391.734 202.271 392.22 201.635 392.604C200.999 392.976 200.255 393.162 199.403 393.162C198.527 393.162 197.729 392.946 197.009 392.514C196.301 392.082 195.743 391.476 195.335 390.696C194.927 389.916 194.723 389.028 194.723 388.032ZM203.075 388.05C203.075 387.306 202.925 386.658 202.625 386.106C202.325 385.554 201.917 385.134 201.401 384.846C200.897 384.546 200.339 384.396 199.727 384.396C199.115 384.396 198.557 384.54 198.053 384.828C197.549 385.116 197.147 385.536 196.847 386.088C196.547 386.64 196.397 387.288 196.397 388.032C196.397 388.788 196.547 389.448 196.847 390.012C197.147 390.564 197.549 390.99 198.053 391.29C198.557 391.578 199.115 391.722 199.727 391.722C200.339 391.722 200.897 391.578 201.401 391.29C201.917 390.99 202.325 390.564 202.625 390.012C202.925 389.448 203.075 388.794 203.075 388.05ZM216.499 387.69C216.499 388.002 216.481 388.332 216.445 388.68H208.561C208.621 389.652 208.951 390.414 209.551 390.966C210.163 391.506 210.901 391.776 211.765 391.776C212.473 391.776 213.061 391.614 213.529 391.29C214.009 390.954 214.345 390.51 214.537 389.958H216.301C216.037 390.906 215.509 391.68 214.717 392.28C213.925 392.868 212.941 393.162 211.765 393.162C210.829 393.162 209.989 392.952 209.245 392.532C208.513 392.112 207.937 391.518 207.517 390.75C207.097 389.97 206.887 389.07 206.887 388.05C206.887 387.03 207.091 386.136 207.499 385.368C207.907 384.6 208.477 384.012 209.209 383.604C209.953 383.184 210.805 382.974 211.765 382.974C212.701 382.974 213.529 383.178 214.249 383.586C214.969 383.994 215.521 384.558 215.905 385.278C216.301 385.986 216.499 386.79 216.499 387.69ZM214.807 387.348C214.807 386.724 214.669 386.19 214.393 385.746C214.117 385.29 213.739 384.948 213.259 384.72C212.791 384.48 212.269 384.36 211.693 384.36C210.865 384.36 210.157 384.624 209.569 385.152C208.993 385.68 208.663 386.412 208.579 387.348H214.807ZM220.299 379.68V393H218.661V379.68H220.299ZM226.583 393.162C225.827 393.162 225.149 393.036 224.549 392.784C223.949 392.52 223.475 392.16 223.127 391.704C222.779 391.236 222.587 390.702 222.551 390.102H224.243C224.291 390.594 224.519 390.996 224.927 391.308C225.347 391.62 225.893 391.776 226.565 391.776C227.189 391.776 227.681 391.638 228.041 391.362C228.401 391.086 228.581 390.738 228.581 390.318C228.581 389.886 228.389 389.568 228.005 389.364C227.621 389.148 227.027 388.938 226.223 388.734C225.491 388.542 224.891 388.35 224.423 388.158C223.967 387.954 223.571 387.66 223.235 387.276C222.911 386.88 222.749 386.364 222.749 385.728C222.749 385.224 222.899 384.762 223.199 384.342C223.499 383.922 223.925 383.592 224.477 383.352C225.029 383.1 225.659 382.974 226.367 382.974C227.459 382.974 228.341 383.25 229.013 383.802C229.685 384.354 230.045 385.11 230.093 386.07H228.455C228.419 385.554 228.209 385.14 227.825 384.828C227.453 384.516 226.949 384.36 226.313 384.36C225.725 384.36 225.257 384.486 224.909 384.738C224.561 384.99 224.387 385.32 224.387 385.728C224.387 386.052 224.489 386.322 224.693 386.538C224.909 386.742 225.173 386.91 225.485 387.042C225.809 387.162 226.253 387.3 226.817 387.456C227.525 387.648 228.101 387.84 228.545 388.032C228.989 388.212 229.367 388.488 229.679 388.86C230.003 389.232 230.171 389.718 230.183 390.318C230.183 390.858 230.033 391.344 229.733 391.776C229.433 392.208 229.007 392.55 228.455 392.802C227.915 393.042 227.291 393.162 226.583 393.162Z" fill="black"/>
<path d="M24.0827 270.544V283H22.4447V273.712L18.3047 283H17.1527L12.9947 273.694V283H11.3567V270.544H13.1207L17.7287 280.84L22.3367 270.544H24.0827ZM31.1626 283.162C30.2386 283.162 29.3986 282.952 28.6426 282.532C27.8986 282.112 27.3106 281.518 26.8786 280.75C26.4586 279.97 26.2486 279.07 26.2486 278.05C26.2486 277.042 26.4646 276.154 26.8966 275.386C27.3406 274.606 27.9406 274.012 28.6966 273.604C29.4526 273.184 30.2986 272.974 31.2346 272.974C32.1706 272.974 33.0166 273.184 33.7726 273.604C34.5286 274.012 35.1226 274.6 35.5546 275.368C35.9986 276.136 36.2206 277.03 36.2206 278.05C36.2206 279.07 35.9926 279.97 35.5366 280.75C35.0926 281.518 34.4866 282.112 33.7186 282.532C32.9506 282.952 32.0986 283.162 31.1626 283.162ZM31.1626 281.722C31.7506 281.722 32.3026 281.584 32.8186 281.308C33.3346 281.032 33.7486 280.618 34.0606 280.066C34.3846 279.514 34.5466 278.842 34.5466 278.05C34.5466 277.258 34.3906 276.586 34.0786 276.034C33.7666 275.482 33.3586 275.074 32.8546 274.81C32.3506 274.534 31.8046 274.396 31.2166 274.396C30.6166 274.396 30.0646 274.534 29.5606 274.81C29.0686 275.074 28.6726 275.482 28.3726 276.034C28.0726 276.586 27.9226 277.258 27.9226 278.05C27.9226 278.854 28.0666 279.532 28.3546 280.084C28.6546 280.636 29.0506 281.05 29.5426 281.326C30.0346 281.59 30.5746 281.722 31.1626 281.722ZM37.7623 278.032C37.7623 277.024 37.9663 276.142 38.3743 275.386C38.7823 274.618 39.3403 274.024 40.0483 273.604C40.7683 273.184 41.5723 272.974 42.4603 272.974C43.2283 272.974 43.9423 273.154 44.6023 273.514C45.2623 273.862 45.7663 274.324 46.1143 274.9V269.68H47.7703V283H46.1143V281.146C45.7903 281.734 45.3103 282.22 44.6743 282.604C44.0383 282.976 43.2943 283.162 42.4423 283.162C41.5663 283.162 40.7683 282.946 40.0483 282.514C39.3403 282.082 38.7823 281.476 38.3743 280.696C37.9663 279.916 37.7623 279.028 37.7623 278.032ZM46.1143 278.05C46.1143 277.306 45.9643 276.658 45.6643 276.106C45.3643 275.554 44.9563 275.134 44.4403 274.846C43.9363 274.546 43.3783 274.396 42.7663 274.396C42.1543 274.396 41.5963 274.54 41.0923 274.828C40.5883 275.116 40.1863 275.536 39.8863 276.088C39.5863 276.64 39.4363 277.288 39.4363 278.032C39.4363 278.788 39.5863 279.448 39.8863 280.012C40.1863 280.564 40.5883 280.99 41.0923 281.29C41.5963 281.578 42.1543 281.722 42.7663 281.722C43.3783 281.722 43.9363 281.578 44.4403 281.29C44.9563 280.99 45.3643 280.564 45.6643 280.012C45.9643 279.448 46.1143 278.794 46.1143 278.05ZM59.5384 277.69C59.5384 278.002 59.5204 278.332 59.4844 278.68H51.6004C51.6604 279.652 51.9904 280.414 52.5904 280.966C53.2024 281.506 53.9404 281.776 54.8044 281.776C55.5124 281.776 56.1004 281.614 56.5684 281.29C57.0484 280.954 57.3844 280.51 57.5764 279.958H59.3404C59.0764 280.906 58.5484 281.68 57.7564 282.28C56.9644 282.868 55.9804 283.162 54.8044 283.162C53.8684 283.162 53.0284 282.952 52.2844 282.532C51.5524 282.112 50.9764 281.518 50.5564 280.75C50.1364 279.97 49.9264 279.07 49.9264 278.05C49.9264 277.03 50.1304 276.136 50.5384 275.368C50.9464 274.6 51.5164 274.012 52.2484 273.604C52.9924 273.184 53.8444 272.974 54.8044 272.974C55.7404 272.974 56.5684 273.178 57.2884 273.586C58.0084 273.994 58.5604 274.558 58.9444 275.278C59.3404 275.986 59.5384 276.79 59.5384 277.69ZM57.8464 277.348C57.8464 276.724 57.7084 276.19 57.4324 275.746C57.1564 275.29 56.7784 274.948 56.2984 274.72C55.8304 274.48 55.3084 274.36 54.7324 274.36C53.9044 274.36 53.1964 274.624 52.6084 275.152C52.0324 275.68 51.7024 276.412 51.6184 277.348H57.8464ZM63.3385 269.68V283H61.7005V269.68H63.3385ZM72.927 274.486V280.3C72.927 280.78 73.029 281.122 73.233 281.326C73.437 281.518 73.791 281.614 74.295 281.614H75.501V283H74.025C73.113 283 72.429 282.79 71.973 282.37C71.517 281.95 71.289 281.26 71.289 280.3V274.486H70.011V273.136H71.289V270.652H72.927V273.136H75.501V274.486H72.927ZM79.1236 274.738C79.4116 274.174 79.8196 273.736 80.3476 273.424C80.8876 273.112 81.5416 272.956 82.3096 272.956V274.648H81.8776C80.0416 274.648 79.1236 275.644 79.1236 277.636V283H77.4856V273.136H79.1236V274.738ZM83.5885 278.032C83.5885 277.024 83.7925 276.142 84.2005 275.386C84.6085 274.618 85.1665 274.024 85.8745 273.604C86.5945 273.184 87.3925 272.974 88.2685 272.974C89.1325 272.974 89.8825 273.16 90.5185 273.532C91.1545 273.904 91.6285 274.372 91.9405 274.936V273.136H93.5965V283H91.9405V281.164C91.6165 281.74 91.1305 282.22 90.4825 282.604C89.8465 282.976 89.1025 283.162 88.2505 283.162C87.3745 283.162 86.5825 282.946 85.8745 282.514C85.1665 282.082 84.6085 281.476 84.2005 280.696C83.7925 279.916 83.5885 279.028 83.5885 278.032ZM91.9405 278.05C91.9405 277.306 91.7905 276.658 91.4905 276.106C91.1905 275.554 90.7825 275.134 90.2665 274.846C89.7625 274.546 89.2045 274.396 88.5925 274.396C87.9805 274.396 87.4225 274.54 86.9185 274.828C86.4145 275.116 86.0125 275.536 85.7125 276.088C85.4125 276.64 85.2625 277.288 85.2625 278.032C85.2625 278.788 85.4125 279.448 85.7125 280.012C86.0125 280.564 86.4145 280.99 86.9185 281.29C87.4225 281.578 87.9805 281.722 88.5925 281.722C89.2045 281.722 89.7625 281.578 90.2665 281.29C90.7825 280.99 91.1905 280.564 91.4905 280.012C91.7905 279.448 91.9405 278.794 91.9405 278.05ZM97.2105 271.534C96.8985 271.534 96.6345 271.426 96.4185 271.21C96.2025 270.994 96.0945 270.73 96.0945 270.418C96.0945 270.106 96.2025 269.842 96.4185 269.626C96.6345 269.41 96.8985 269.302 97.2105 269.302C97.5105 269.302 97.7625 269.41 97.9665 269.626C98.1825 269.842 98.2905 270.106 98.2905 270.418C98.2905 270.73 98.1825 270.994 97.9665 271.21C97.7625 271.426 97.5105 271.534 97.2105 271.534ZM98.0025 273.136V283H96.3645V273.136H98.0025ZM105.6 272.956C106.8 272.956 107.772 273.322 108.516 274.054C109.26 274.774 109.632 275.818 109.632 277.186V283H108.012V277.42C108.012 276.436 107.766 275.686 107.274 275.17C106.782 274.642 106.11 274.378 105.258 274.378C104.394 274.378 103.704 274.648 103.188 275.188C102.684 275.728 102.432 276.514 102.432 277.546V283H100.794V273.136H102.432V274.54C102.756 274.036 103.194 273.646 103.746 273.37C104.31 273.094 104.928 272.956 105.6 272.956ZM113.154 271.534C112.842 271.534 112.578 271.426 112.362 271.21C112.146 270.994 112.038 270.73 112.038 270.418C112.038 270.106 112.146 269.842 112.362 269.626C112.578 269.41 112.842 269.302 113.154 269.302C113.454 269.302 113.706 269.41 113.91 269.626C114.126 269.842 114.234 270.106 114.234 270.418C114.234 270.73 114.126 270.994 113.91 271.21C113.706 271.426 113.454 271.534 113.154 271.534ZM113.946 273.136V283H112.308V273.136H113.946ZM121.544 272.956C122.744 272.956 123.716 273.322 124.46 274.054C125.204 274.774 125.576 275.818 125.576 277.186V283H123.956V277.42C123.956 276.436 123.71 275.686 123.218 275.17C122.726 274.642 122.054 274.378 121.202 274.378C120.338 274.378 119.648 274.648 119.132 275.188C118.628 275.728 118.376 276.514 118.376 277.546V283H116.738V273.136H118.376V274.54C118.7 274.036 119.138 273.646 119.69 273.37C120.254 273.094 120.872 272.956 121.544 272.956ZM132.319 272.974C133.171 272.974 133.915 273.16 134.551 273.532C135.199 273.904 135.679 274.372 135.991 274.936V273.136H137.647V283.216C137.647 284.116 137.455 284.914 137.071 285.61C136.687 286.318 136.135 286.87 135.415 287.266C134.707 287.662 133.879 287.86 132.931 287.86C131.635 287.86 130.555 287.554 129.691 286.942C128.827 286.33 128.317 285.496 128.161 284.44H129.781C129.961 285.04 130.333 285.52 130.897 285.88C131.461 286.252 132.139 286.438 132.931 286.438C133.831 286.438 134.563 286.156 135.127 285.592C135.703 285.028 135.991 284.236 135.991 283.216V281.146C135.667 281.722 135.187 282.202 134.551 282.586C133.915 282.97 133.171 283.162 132.319 283.162C131.443 283.162 130.645 282.946 129.925 282.514C129.217 282.082 128.659 281.476 128.251 280.696C127.843 279.916 127.639 279.028 127.639 278.032C127.639 277.024 127.843 276.142 128.251 275.386C128.659 274.618 129.217 274.024 129.925 273.604C130.645 273.184 131.443 272.974 132.319 272.974ZM135.991 278.05C135.991 277.306 135.841 276.658 135.541 276.106C135.241 275.554 134.833 275.134 134.317 274.846C133.813 274.546 133.255 274.396 132.643 274.396C132.031 274.396 131.473 274.54 130.969 274.828C130.465 275.116 130.063 275.536 129.763 276.088C129.463 276.64 129.313 277.288 129.313 278.032C129.313 278.788 129.463 279.448 129.763 280.012C130.063 280.564 130.465 280.99 130.969 281.29C131.473 281.578 132.031 281.722 132.643 281.722C133.255 281.722 133.813 281.578 134.317 281.29C134.833 280.99 135.241 280.564 135.541 280.012C135.841 279.448 135.991 278.794 135.991 278.05ZM43.1264 310L41.4884 308.344C40.8764 308.98 40.2224 309.454 39.5264 309.766C38.8304 310.066 38.0444 310.216 37.1684 310.216C36.3044 310.216 35.5364 310.06 34.8644 309.748C34.2044 309.436 33.6884 308.992 33.3164 308.416C32.9564 307.84 32.7764 307.168 32.7764 306.4C32.7764 305.524 33.0224 304.756 33.5144 304.096C34.0184 303.424 34.7564 302.896 35.7284 302.512C35.3444 302.056 35.0684 301.636 34.9004 301.252C34.7324 300.868 34.6484 300.448 34.6484 299.992C34.6484 299.464 34.7804 298.99 35.0444 298.57C35.3204 298.138 35.7104 297.802 36.2144 297.562C36.7184 297.322 37.3004 297.202 37.9604 297.202C38.6084 297.202 39.1724 297.328 39.6524 297.58C40.1324 297.832 40.4924 298.186 40.7324 298.642C40.9724 299.086 41.0804 299.584 41.0564 300.136H39.4184C39.4304 299.644 39.2924 299.26 39.0044 298.984C38.7164 298.696 38.3444 298.552 37.8884 298.552C37.4084 298.552 37.0184 298.69 36.7184 298.966C36.4304 299.23 36.2864 299.572 36.2864 299.992C36.2864 300.352 36.3824 300.7 36.5744 301.036C36.7784 301.372 37.1144 301.786 37.5824 302.278L41.3264 306.04L41.6504 305.536L42.8744 303.484H44.6384L43.1624 306.04C42.9584 306.4 42.7184 306.778 42.4424 307.174L45.2684 310H43.1264ZM37.1684 308.812C37.8164 308.812 38.3984 308.686 38.9144 308.434C39.4424 308.182 39.9404 307.792 40.4084 307.264L36.7184 303.556C35.1824 304.144 34.4144 305.074 34.4144 306.346C34.4144 307.054 34.6664 307.642 35.1704 308.11C35.6864 308.578 36.3524 308.812 37.1684 308.812ZM55.0938 310.162C54.3378 310.162 53.6598 310.036 53.0598 309.784C52.4598 309.52 51.9858 309.16 51.6378 308.704C51.2898 308.236 51.0978 307.702 51.0618 307.102H52.7538C52.8018 307.594 53.0298 307.996 53.4378 308.308C53.8578 308.62 54.4038 308.776 55.0758 308.776C55.6998 308.776 56.1918 308.638 56.5518 308.362C56.9118 308.086 57.0918 307.738 57.0918 307.318C57.0918 306.886 56.8998 306.568 56.5158 306.364C56.1318 306.148 55.5378 305.938 54.7338 305.734C54.0018 305.542 53.4018 305.35 52.9338 305.158C52.4778 304.954 52.0818 304.66 51.7458 304.276C51.4218 303.88 51.2598 303.364 51.2598 302.728C51.2598 302.224 51.4098 301.762 51.7098 301.342C52.0098 300.922 52.4358 300.592 52.9878 300.352C53.5398 300.1 54.1698 299.974 54.8778 299.974C55.9698 299.974 56.8518 300.25 57.5238 300.802C58.1958 301.354 58.5558 302.11 58.6038 303.07H56.9658C56.9298 302.554 56.7198 302.14 56.3358 301.828C55.9638 301.516 55.4598 301.36 54.8238 301.36C54.2358 301.36 53.7678 301.486 53.4198 301.738C53.0718 301.99 52.8978 302.32 52.8978 302.728C52.8978 303.052 52.9998 303.322 53.2038 303.538C53.4198 303.742 53.6838 303.91 53.9958 304.042C54.3198 304.162 54.7638 304.3 55.3278 304.456C56.0358 304.648 56.6118 304.84 57.0558 305.032C57.4998 305.212 57.8778 305.488 58.1898 305.86C58.5138 306.232 58.6818 306.718 58.6938 307.318C58.6938 307.858 58.5438 308.344 58.2438 308.776C57.9438 309.208 57.5178 309.55 56.9658 309.802C56.4258 310.042 55.8018 310.162 55.0938 310.162ZM60.3941 305.05C60.3941 304.03 60.5981 303.142 61.0061 302.386C61.4141 301.618 61.9781 301.024 62.6981 300.604C63.4301 300.184 64.2641 299.974 65.2001 299.974C66.4121 299.974 67.4081 300.268 68.1881 300.856C68.9801 301.444 69.5021 302.26 69.7541 303.304H67.9901C67.8221 302.704 67.4921 302.23 67.0001 301.882C66.5201 301.534 65.9201 301.36 65.2001 301.36C64.2641 301.36 63.5081 301.684 62.9321 302.332C62.3561 302.968 62.0681 303.874 62.0681 305.05C62.0681 306.238 62.3561 307.156 62.9321 307.804C63.5081 308.452 64.2641 308.776 65.2001 308.776C65.9201 308.776 66.5201 308.608 67.0001 308.272C67.4801 307.936 67.8101 307.456 67.9901 306.832H69.7541C69.4901 307.84 68.9621 308.65 68.1701 309.262C67.3781 309.862 66.3881 310.162 65.2001 310.162C64.2641 310.162 63.4301 309.952 62.6981 309.532C61.9781 309.112 61.4141 308.518 61.0061 307.75C60.5981 306.982 60.3941 306.082 60.3941 305.05ZM76.2417 310.162C75.3177 310.162 74.4777 309.952 73.7217 309.532C72.9777 309.112 72.3897 308.518 71.9577 307.75C71.5377 306.97 71.3277 306.07 71.3277 305.05C71.3277 304.042 71.5437 303.154 71.9757 302.386C72.4197 301.606 73.0197 301.012 73.7757 300.604C74.5317 300.184 75.3777 299.974 76.3137 299.974C77.2497 299.974 78.0957 300.184 78.8517 300.604C79.6077 301.012 80.2017 301.6 80.6337 302.368C81.0777 303.136 81.2997 304.03 81.2997 305.05C81.2997 306.07 81.0717 306.97 80.6157 307.75C80.1717 308.518 79.5657 309.112 78.7977 309.532C78.0297 309.952 77.1777 310.162 76.2417 310.162ZM76.2417 308.722C76.8297 308.722 77.3817 308.584 77.8977 308.308C78.4137 308.032 78.8277 307.618 79.1397 307.066C79.4637 306.514 79.6257 305.842 79.6257 305.05C79.6257 304.258 79.4697 303.586 79.1577 303.034C78.8457 302.482 78.4377 302.074 77.9337 301.81C77.4297 301.534 76.8837 301.396 76.2957 301.396C75.6957 301.396 75.1437 301.534 74.6397 301.81C74.1477 302.074 73.7517 302.482 73.4517 303.034C73.1517 303.586 73.0017 304.258 73.0017 305.05C73.0017 305.854 73.1457 306.532 73.4337 307.084C73.7337 307.636 74.1297 308.05 74.6217 308.326C75.1137 308.59 75.6537 308.722 76.2417 308.722ZM85.0914 301.738C85.3794 301.174 85.7874 300.736 86.3154 300.424C86.8554 300.112 87.5094 299.956 88.2774 299.956V301.648H87.8454C86.0094 301.648 85.0914 302.644 85.0914 304.636V310H83.4534V300.136H85.0914V301.738ZM91.0142 298.534C90.7022 298.534 90.4382 298.426 90.2222 298.21C90.0062 297.994 89.8982 297.73 89.8982 297.418C89.8982 297.106 90.0062 296.842 90.2222 296.626C90.4382 296.41 90.7022 296.302 91.0142 296.302C91.3142 296.302 91.5662 296.41 91.7702 296.626C91.9862 296.842 92.0942 297.106 92.0942 297.418C92.0942 297.73 91.9862 297.994 91.7702 298.21C91.5662 298.426 91.3142 298.534 91.0142 298.534ZM91.8062 300.136V310H90.1682V300.136H91.8062ZM99.4039 299.956C100.604 299.956 101.576 300.322 102.32 301.054C103.064 301.774 103.436 302.818 103.436 304.186V310H101.816V304.42C101.816 303.436 101.57 302.686 101.078 302.17C100.586 301.642 99.9139 301.378 99.0619 301.378C98.1979 301.378 97.5079 301.648 96.9919 302.188C96.4879 302.728 96.2359 303.514 96.2359 304.546V310H94.5979V300.136H96.2359V301.54C96.5599 301.036 96.9979 300.646 97.5499 300.37C98.1139 300.094 98.7319 299.956 99.4039 299.956ZM110.18 299.974C111.032 299.974 111.776 300.16 112.412 300.532C113.06 300.904 113.54 301.372 113.852 301.936V300.136H115.508V310.216C115.508 311.116 115.316 311.914 114.932 312.61C114.548 313.318 113.996 313.87 113.276 314.266C112.568 314.662 111.74 314.86 110.792 314.86C109.496 314.86 108.416 314.554 107.552 313.942C106.688 313.33 106.178 312.496 106.022 311.44H107.642C107.822 312.04 108.194 312.52 108.758 312.88C109.322 313.252 110 313.438 110.792 313.438C111.692 313.438 112.424 313.156 112.988 312.592C113.564 312.028 113.852 311.236 113.852 310.216V308.146C113.528 308.722 113.048 309.202 112.412 309.586C111.776 309.97 111.032 310.162 110.18 310.162C109.304 310.162 108.506 309.946 107.786 309.514C107.078 309.082 106.52 308.476 106.112 307.696C105.704 306.916 105.5 306.028 105.5 305.032C105.5 304.024 105.704 303.142 106.112 302.386C106.52 301.618 107.078 301.024 107.786 300.604C108.506 300.184 109.304 299.974 110.18 299.974ZM113.852 305.05C113.852 304.306 113.702 303.658 113.402 303.106C113.102 302.554 112.694 302.134 112.178 301.846C111.674 301.546 111.116 301.396 110.504 301.396C109.892 301.396 109.334 301.54 108.83 301.828C108.326 302.116 107.924 302.536 107.624 303.088C107.324 303.64 107.174 304.288 107.174 305.032C107.174 305.788 107.324 306.448 107.624 307.012C107.924 307.564 108.326 307.99 108.83 308.29C109.334 308.578 109.892 308.722 110.504 308.722C111.116 308.722 111.674 308.578 112.178 308.29C112.694 307.99 113.102 307.564 113.402 307.012C113.702 306.448 113.852 305.794 113.852 305.05Z" fill="black"/>
<path d="M51.7253 155.939V168.395H50.0873V159.107L45.9473 168.395H44.7953L40.6373 159.089V168.395H38.9993V155.939H40.7633L45.3713 166.235L49.9793 155.939H51.7253ZM58.8052 168.557C57.8812 168.557 57.0412 168.347 56.2852 167.927C55.5412 167.507 54.9532 166.913 54.5212 166.145C54.1012 165.365 53.8912 164.465 53.8912 163.445C53.8912 162.437 54.1072 161.549 54.5392 160.781C54.9832 160.001 55.5832 159.407 56.3392 158.999C57.0952 158.579 57.9412 158.369 58.8772 158.369C59.8132 158.369 60.6592 158.579 61.4152 158.999C62.1712 159.407 62.7652 159.995 63.1972 160.763C63.6412 161.531 63.8632 162.425 63.8632 163.445C63.8632 164.465 63.6352 165.365 63.1792 166.145C62.7352 166.913 62.1292 167.507 61.3612 167.927C60.5932 168.347 59.7412 168.557 58.8052 168.557ZM58.8052 167.117C59.3932 167.117 59.9452 166.979 60.4612 166.703C60.9772 166.427 61.3912 166.013 61.7032 165.461C62.0272 164.909 62.1892 164.237 62.1892 163.445C62.1892 162.653 62.0332 161.981 61.7212 161.429C61.4092 160.877 61.0012 160.469 60.4972 160.205C59.9932 159.929 59.4472 159.791 58.8592 159.791C58.2592 159.791 57.7072 159.929 57.2032 160.205C56.7112 160.469 56.3152 160.877 56.0152 161.429C55.7152 161.981 55.5652 162.653 55.5652 163.445C55.5652 164.249 55.7092 164.927 55.9972 165.479C56.2972 166.031 56.6932 166.445 57.1852 166.721C57.6772 166.985 58.2172 167.117 58.8052 167.117ZM65.4048 163.427C65.4048 162.419 65.6088 161.537 66.0168 160.781C66.4248 160.013 66.9828 159.419 67.6908 158.999C68.4108 158.579 69.2148 158.369 70.1028 158.369C70.8708 158.369 71.5848 158.549 72.2448 158.909C72.9048 159.257 73.4088 159.719 73.7568 160.295V155.075H75.4128V168.395H73.7568V166.541C73.4328 167.129 72.9528 167.615 72.3168 167.999C71.6808 168.371 70.9368 168.557 70.0848 168.557C69.2088 168.557 68.4108 168.341 67.6908 167.909C66.9828 167.477 66.4248 166.871 66.0168 166.091C65.6088 165.311 65.4048 164.423 65.4048 163.427ZM73.7568 163.445C73.7568 162.701 73.6068 162.053 73.3068 161.501C73.0068 160.949 72.5988 160.529 72.0828 160.241C71.5788 159.941 71.0208 159.791 70.4088 159.791C69.7968 159.791 69.2388 159.935 68.7348 160.223C68.2308 160.511 67.8288 160.931 67.5288 161.483C67.2288 162.035 67.0788 162.683 67.0788 163.427C67.0788 164.183 67.2288 164.843 67.5288 165.407C67.8288 165.959 68.2308 166.385 68.7348 166.685C69.2388 166.973 69.7968 167.117 70.4088 167.117C71.0208 167.117 71.5788 166.973 72.0828 166.685C72.5988 166.385 73.0068 165.959 73.3068 165.407C73.6068 164.843 73.7568 164.189 73.7568 163.445ZM87.1809 163.085C87.1809 163.397 87.1629 163.727 87.1269 164.075H79.2429C79.3029 165.047 79.6329 165.809 80.2329 166.361C80.8449 166.901 81.5829 167.171 82.4469 167.171C83.1549 167.171 83.7429 167.009 84.2109 166.685C84.6909 166.349 85.0269 165.905 85.2189 165.353H86.9829C86.7189 166.301 86.1909 167.075 85.3989 167.675C84.6069 168.263 83.6229 168.557 82.4469 168.557C81.5109 168.557 80.6709 168.347 79.9269 167.927C79.1949 167.507 78.6189 166.913 78.1989 166.145C77.7789 165.365 77.5689 164.465 77.5689 163.445C77.5689 162.425 77.7729 161.531 78.1809 160.763C78.5889 159.995 79.1589 159.407 79.8909 158.999C80.6349 158.579 81.4869 158.369 82.4469 158.369C83.3829 158.369 84.2109 158.573 84.9309 158.981C85.6509 159.389 86.2029 159.953 86.5869 160.673C86.9829 161.381 87.1809 162.185 87.1809 163.085ZM85.4889 162.743C85.4889 162.119 85.3509 161.585 85.0749 161.141C84.7989 160.685 84.4209 160.343 83.9409 160.115C83.4729 159.875 82.9509 159.755 82.3749 159.755C81.5469 159.755 80.8389 160.019 80.2509 160.547C79.6749 161.075 79.3449 161.807 79.2609 162.743H85.4889ZM90.981 155.075V168.395H89.343V155.075H90.981ZM29.3252 195.557C28.5692 195.557 27.8912 195.431 27.2912 195.179C26.6912 194.915 26.2172 194.555 25.8692 194.099C25.5212 193.631 25.3292 193.097 25.2932 192.497H26.9852C27.0332 192.989 27.2612 193.391 27.6692 193.703C28.0892 194.015 28.6352 194.171 29.3072 194.171C29.9312 194.171 30.4232 194.033 30.7832 193.757C31.1432 193.481 31.3232 193.133 31.3232 192.713C31.3232 192.281 31.1312 191.963 30.7472 191.759C30.3632 191.543 29.7692 191.333 28.9652 191.129C28.2332 190.937 27.6332 190.745 27.1652 190.553C26.7092 190.349 26.3132 190.055 25.9772 189.671C25.6532 189.275 25.4912 188.759 25.4912 188.123C25.4912 187.619 25.6412 187.157 25.9412 186.737C26.2412 186.317 26.6672 185.987 27.2192 185.747C27.7712 185.495 28.4012 185.369 29.1092 185.369C30.2012 185.369 31.0832 185.645 31.7552 186.197C32.4272 186.749 32.7872 187.505 32.8352 188.465H31.1972C31.1612 187.949 30.9512 187.535 30.5672 187.223C30.1952 186.911 29.6912 186.755 29.0552 186.755C28.4672 186.755 27.9992 186.881 27.6512 187.133C27.3032 187.385 27.1292 187.715 27.1292 188.123C27.1292 188.447 27.2312 188.717 27.4352 188.933C27.6512 189.137 27.9152 189.305 28.2272 189.437C28.5512 189.557 28.9952 189.695 29.5592 189.851C30.2672 190.043 30.8432 190.235 31.2872 190.427C31.7312 190.607 32.1092 190.883 32.4212 191.255C32.7452 191.627 32.9132 192.113 32.9252 192.713C32.9252 193.253 32.7752 193.739 32.4752 194.171C32.1752 194.603 31.7492 194.945 31.1972 195.197C30.6572 195.437 30.0332 195.557 29.3252 195.557ZM44.2375 190.085C44.2375 190.397 44.2195 190.727 44.1835 191.075H36.2995C36.3595 192.047 36.6895 192.809 37.2895 193.361C37.9015 193.901 38.6395 194.171 39.5035 194.171C40.2115 194.171 40.7995 194.009 41.2675 193.685C41.7475 193.349 42.0835 192.905 42.2755 192.353H44.0395C43.7755 193.301 43.2475 194.075 42.4555 194.675C41.6635 195.263 40.6795 195.557 39.5035 195.557C38.5675 195.557 37.7275 195.347 36.9835 194.927C36.2515 194.507 35.6755 193.913 35.2555 193.145C34.8355 192.365 34.6255 191.465 34.6255 190.445C34.6255 189.425 34.8295 188.531 35.2375 187.763C35.6455 186.995 36.2155 186.407 36.9475 185.999C37.6915 185.579 38.5435 185.369 39.5035 185.369C40.4395 185.369 41.2675 185.573 41.9875 185.981C42.7075 186.389 43.2595 186.953 43.6435 187.673C44.0395 188.381 44.2375 189.185 44.2375 190.085ZM42.5455 189.743C42.5455 189.119 42.4075 188.585 42.1315 188.141C41.8555 187.685 41.4775 187.343 40.9975 187.115C40.5295 186.875 40.0075 186.755 39.4315 186.755C38.6035 186.755 37.8955 187.019 37.3075 187.547C36.7315 188.075 36.4015 188.807 36.3175 189.743H42.5455ZM48.0376 182.075V195.395H46.3996V182.075H48.0376ZM59.8293 190.085C59.8293 190.397 59.8113 190.727 59.7753 191.075H51.8913C51.9513 192.047 52.2813 192.809 52.8813 193.361C53.4933 193.901 54.2313 194.171 55.0953 194.171C55.8033 194.171 56.3913 194.009 56.8593 193.685C57.3393 193.349 57.6753 192.905 57.8673 192.353H59.6313C59.3673 193.301 58.8393 194.075 58.0473 194.675C57.2553 195.263 56.2713 195.557 55.0953 195.557C54.1593 195.557 53.3193 195.347 52.5753 194.927C51.8433 194.507 51.2673 193.913 50.8473 193.145C50.4273 192.365 50.2173 191.465 50.2173 190.445C50.2173 189.425 50.4213 188.531 50.8293 187.763C51.2373 186.995 51.8073 186.407 52.5393 185.999C53.2833 185.579 54.1353 185.369 55.0953 185.369C56.0313 185.369 56.8593 185.573 57.5793 185.981C58.2993 186.389 58.8513 186.953 59.2353 187.673C59.6313 188.381 59.8293 189.185 59.8293 190.085ZM58.1373 189.743C58.1373 189.119 57.9993 188.585 57.7233 188.141C57.4473 187.685 57.0693 187.343 56.5893 187.115C56.1213 186.875 55.5993 186.755 55.0233 186.755C54.1953 186.755 53.4873 187.019 52.8993 187.547C52.3233 188.075 51.9933 188.807 51.9093 189.743H58.1373ZM61.3794 190.445C61.3794 189.425 61.5834 188.537 61.9914 187.781C62.3994 187.013 62.9634 186.419 63.6834 185.999C64.4154 185.579 65.2494 185.369 66.1854 185.369C67.3974 185.369 68.3934 185.663 69.1734 186.251C69.9654 186.839 70.4874 187.655 70.7394 188.699H68.9754C68.8074 188.099 68.4774 187.625 67.9854 187.277C67.5054 186.929 66.9054 186.755 66.1854 186.755C65.2494 186.755 64.4934 187.079 63.9174 187.727C63.3414 188.363 63.0534 189.269 63.0534 190.445C63.0534 191.633 63.3414 192.551 63.9174 193.199C64.4934 193.847 65.2494 194.171 66.1854 194.171C66.9054 194.171 67.5054 194.003 67.9854 193.667C68.4654 193.331 68.7954 192.851 68.9754 192.227H70.7394C70.4754 193.235 69.9474 194.045 69.1554 194.657C68.3634 195.257 67.3734 195.557 66.1854 195.557C65.2494 195.557 64.4154 195.347 63.6834 194.927C62.9634 194.507 62.3994 193.913 61.9914 193.145C61.5834 192.377 61.3794 191.477 61.3794 190.445ZM74.923 186.881V192.695C74.923 193.175 75.025 193.517 75.229 193.721C75.433 193.913 75.787 194.009 76.291 194.009H77.497V195.395H76.021C75.109 195.395 74.425 195.185 73.969 194.765C73.513 194.345 73.285 193.655 73.285 192.695V186.881H72.007V185.531H73.285V183.047H74.923V185.531H77.497V186.881H74.923ZM80.3277 183.929C80.0157 183.929 79.7517 183.821 79.5357 183.605C79.3197 183.389 79.2117 183.125 79.2117 182.813C79.2117 182.501 79.3197 182.237 79.5357 182.021C79.7517 181.805 80.0157 181.697 80.3277 181.697C80.6277 181.697 80.8797 181.805 81.0837 182.021C81.2997 182.237 81.4077 182.501 81.4077 182.813C81.4077 183.125 81.2997 183.389 81.0837 183.605C80.8797 183.821 80.6277 183.929 80.3277 183.929ZM81.1197 185.531V195.395H79.4817V185.531H81.1197ZM88.2134 195.557C87.2894 195.557 86.4494 195.347 85.6934 194.927C84.9494 194.507 84.3614 193.913 83.9294 193.145C83.5094 192.365 83.2994 191.465 83.2994 190.445C83.2994 189.437 83.5154 188.549 83.9474 187.781C84.3914 187.001 84.9914 186.407 85.7474 185.999C86.5034 185.579 87.3494 185.369 88.2854 185.369C89.2214 185.369 90.0674 185.579 90.8234 185.999C91.5794 186.407 92.1734 186.995 92.6054 187.763C93.0494 188.531 93.2714 189.425 93.2714 190.445C93.2714 191.465 93.0434 192.365 92.5874 193.145C92.1434 193.913 91.5374 194.507 90.7694 194.927C90.0014 195.347 89.1494 195.557 88.2134 195.557ZM88.2134 194.117C88.8014 194.117 89.3534 193.979 89.8694 193.703C90.3854 193.427 90.7994 193.013 91.1114 192.461C91.4354 191.909 91.5974 191.237 91.5974 190.445C91.5974 189.653 91.4414 188.981 91.1294 188.429C90.8174 187.877 90.4094 187.469 89.9054 187.205C89.4014 186.929 88.8554 186.791 88.2674 186.791C87.6674 186.791 87.1154 186.929 86.6114 187.205C86.1194 187.469 85.7234 187.877 85.4234 188.429C85.1234 188.981 84.9734 189.653 84.9734 190.445C84.9734 191.249 85.1174 191.927 85.4054 192.479C85.7054 193.031 86.1014 193.445 86.5934 193.721C87.0854 193.985 87.6254 194.117 88.2134 194.117ZM100.231 185.351C101.431 185.351 102.403 185.717 103.147 186.449C103.891 187.169 104.263 188.213 104.263 189.581V195.395H102.643V189.815C102.643 188.831 102.397 188.081 101.905 187.565C101.413 187.037 100.741 186.773 99.889 186.773C99.025 186.773 98.335 187.043 97.819 187.583C97.315 188.123 97.063 188.909 97.063 189.941V195.395H95.425V185.531H97.063V186.935C97.387 186.431 97.825 186.041 98.377 185.765C98.941 185.489 99.559 185.351 100.231 185.351Z" fill="black"/>
<path d="M258.475 320.395C284.923 320.4 310.758 312.429 332.607 297.525C354.455 282.62 371.301 261.473 380.946 236.846L331.512 217.487C325.761 232.172 315.716 244.781 302.689 253.669C289.661 262.556 274.256 267.309 258.485 267.306L258.475 320.395Z" fill="#769EDD"/>
<path d="M336.023 82.6758C321.485 72.0654 304.923 64.5523 287.364 60.6017C269.805 56.6511 251.621 56.3471 233.94 59.7086C216.258 63.0702 199.455 70.0256 184.571 80.1442C169.686 90.2628 157.037 103.329 147.407 118.534L192.257 146.94C197.999 137.873 205.542 130.082 214.417 124.049C223.292 118.015 233.312 113.868 243.855 111.863C254.398 109.859 265.241 110.04 275.711 112.396C286.181 114.751 296.057 119.231 304.725 125.558L336.023 82.6758Z" fill="#496CCE"/>
<path d="M380.863 237.055C391.596 209.788 392.913 179.717 384.605 151.616C376.298 123.515 358.843 98.9931 335.01 81.9437L304.122 125.122C318.333 135.288 328.741 149.91 333.694 166.666C338.648 183.422 337.863 201.353 331.463 217.612L380.863 237.055Z" fill="#5D85D6"/>
<path d="M147.627 118.187C131.216 143.922 124.267 174.564 127.973 204.86L180.669 198.415C178.459 180.349 182.603 162.078 192.389 146.733L147.627 118.187Z" fill="#D9E4ED"/>
<path d="M127.974 204.869C132.035 238.049 148.579 268.437 174.244 289.856L208.259 249.096C192.956 236.325 183.091 218.205 180.67 198.42L127.974 204.869Z" fill="#B4CEE7"/>
<path d="M174.209 289.827C197.841 309.562 227.649 320.38 258.437 320.395L258.463 267.306C240.104 267.297 222.33 260.847 208.239 249.079L174.209 289.827Z" fill="#93B6E2"/>
</svg>
